<?xml version="1.0" standalone="no"?>
<!DOCTYPE svg PUBLIC "-//W3C//DTD SVG 20010904//EN"
 "http://www.w3.org/TR/2001/REC-SVG-20010904/DTD/svg10.dtd">
<svg version="1.0" xmlns="http://www.w3.org/2000/svg"
 width="196.000000pt" height="196.000000pt" viewBox="0 0 196.000000 196.000000"
 preserveAspectRatio="xMidYMid meet">
<metadata>
Created by potrace 1.11, written by Peter Selinger 2001-2013
</metadata>
<g transform="translate(0.000000,196.000000) scale(0.100000,-0.100000)"
fill="#000000" stroke="none">
<path d="M922 1944 c-163 -24 -317 -86 -439 -178 -67 -50 -167 -155 -214 -222
-64 -94 -129 -251 -144 -351 -3 -21 -8 -50 -10 -63 -6 -30 -7 -231 -1 -280 27
-223 106 -399 253 -556 124 -135 338 -247 513 -269 29 -4 62 -9 74 -11 38 -9
240 -5 311 5 156 23 302 80 431 169 86 59 158 127 151 144 -4 13 -129 193
-205 296 l-24 33 -51 -44 c-62 -53 -146 -107 -207 -134 -41 -18 -61 -24 -125
-40 -48 -11 -198 -10 -245 2 -27 7 -50 11 -50 9 0 -10 -136 67 -160 89 -110
104 -161 203 -184 353 -35 226 46 442 209 554 44 31 135 64 199 74 48 8 173 9
205 2 115 -25 239 -81 328 -147 l52 -39 14 22 c85 137 176 288 187 307 11 21
9 26 -21 53 -130 113 -316 195 -509 224 -80 11 -253 11 -338 -2z"/>
</g>
</svg>
